# xmcd CD database file
#
# Track frame offsets:
#	150
#	25189
#	42314
#	54951
#	66332
#	83073
#	94080
#	106067
#	120013
#	130477
#	141103
#	158983
#	176855
#	194989
#
# Disc length: 2870 seconds
#
# Revision: 4
# Processed by: cddbd v1.5.2PL0 Copyright (c) Steve Scherf et al.
# Submitted via: CDex 1.70beta2
#
DISCID=c00b340e
DTITLE=New Pathetic Elastic Orchestra - Il Meglio di Quelli della Notte
DYEAR=1999
DGENRE=Jazz
TTITLE0=Ma La Notte No
TTITLE1=Il Materasso
TTITLE2=It's Now Or Never (O' Sole Mio)
TTITLE3=La Società dei Magnaccioni
TTITLE4=Tanto Pe' Cantà
TTITLE5=Tango Della Gelosia
TTITLE6=Una Ragazza In Due (Down Comes The Rain)
TTITLE7=Figlio Unico (Trem Das Onze)
TTITLE8=Let's Twist Again
TTITLE9=Cha Cha Cha della Segretaria
TTITLE10=Eso Es El Amor
TTITLE11=Quando Vien La Sera
TTITLE12=Non Partir
TTITLE13=Maria Marìa
EXTD=YEAR: 1999
EXTT0=
EXTT1=
EXTT2=
EXTT3=
EXTT4=
EXTT5=
EXTT6=
EXTT7=
EXTT8=
EXTT9=
EXTT10=
EXTT11=
EXTT12=
EXTT13=
PLAYORDER=
